<svg xmlns="http://www.w3.org/2000/svg" viewBox="0 0 1000 700">
  <!-- Background -->
  <rect width="1000" height="700" fill="#ffffff" rx="10" ry="10"/>
  
  <!-- Title -->
  <text x="500" y="50" font-family="Arial" font-size="28" font-weight="bold" text-anchor="middle" fill="#333333">RAG Architecture Flow</text>
  
  <!-- User Section - Left Top -->
  <circle cx="120" cy="150" r="35" fill="#e6f7ff" stroke="#1890ff" stroke-width="2"/>
  <text x="120" y="155" font-family="Arial" font-size="16" text-anchor="middle" font-weight="bold" fill="#0050b3">User</text>
  
  <!-- User Query - Next to User -->
  <rect x="220" y="130" width="160" height="40" rx="20" ry="20" fill="#e6f7ff" stroke="#1890ff" stroke-width="2"/>
  <text x="300" y="155" font-family="Arial" font-size="16" text-anchor="middle" fill="#0050b3">User Query</text>
  
  <!-- Arrow from user to query -->
  <path d="M155,150 L220,150" stroke="#595959" stroke-width="2" fill="none" marker-end="url(#arrow)"/>
  
  <!-- *** MAIN FLOW COMPONENTS - WITH CLEAR SEPARATION *** -->
  
  <!-- 1. RETRIEVAL SECTION -->
  <!-- Query Processing -->
  <rect x="220" y="220" width="160" height="60" rx="8" ry="8" fill="#fff2e8" stroke="#fa8c16" stroke-width="2"/>
  <text x="300" y="250" font-family="Arial" font-size="16" font-weight="bold" text-anchor="middle" fill="#873800">Query Processing</text>
  <text x="300" y="270" font-family="Arial" font-size="14" text-anchor="middle" fill="#873800">Embedding Generation</text>
  
  <!-- Document Retriever -->
  <rect x="220" y="330" width="160" height="80" rx="8" ry="8" fill="#fff2e8" stroke="#fa8c16" stroke-width="2"/>
  <text x="300" y="360" font-family="Arial" font-size="16" font-weight="bold" text-anchor="middle" fill="#873800">Retriever</text>
  <text x="300" y="380" font-family="Arial" font-size="14" text-anchor="middle" fill="#873800">Semantic Search</text>
  <text x="300" y="400" font-family="Arial" font-size="14" text-anchor="middle" fill="#873800">Vector Similarity</text>
  
  <!-- 2. KNOWLEDGE BASE SECTION -->
  <rect x="50" y="480" width="300" height="120" rx="8" ry="8" fill="#f6ffed" stroke="#52c41a" stroke-width="2"/>
  <text x="80" y="510" font-family="Arial" font-size="18" font-weight="bold" fill="#135200">Knowledge Base</text>
  
  <!-- Knowledge Base Components -->
  <rect x="80" y="530" width="110" height="50" rx="5" ry="5" fill="#ffffff" stroke="#52c41a" stroke-width="1.5"/>
  <text x="135" y="560" font-family="Arial" font-size="14" text-anchor="middle" fill="#135200">Documents</text>
  
  <rect x="210" y="530" width="110" height="50" rx="5" ry="5" fill="#ffffff" stroke="#52c41a" stroke-width="1.5"/>
  <text x="265" y="560" font-family="Arial" font-size="14" text-anchor="middle" fill="#135200">Vector Store</text>
  
  <!-- 3. CONTEXT PROCESSING SECTION -->
  <rect x="500" y="330" width="160" height="80" rx="8" ry="8" fill="#e6f7ff" stroke="#1890ff" stroke-width="2"/>
  <text x="580" y="360" font-family="Arial" font-size="16" font-weight="bold" text-anchor="middle" fill="#0050b3">Context Builder</text>
  <text x="580" y="380" font-family="Arial" font-size="14" text-anchor="middle" fill="#0050b3">Formats Content</text>
  <text x="580" y="400" font-family="Arial" font-size="14" text-anchor="middle" fill="#0050b3">for LLM Input</text>
  
  <!-- 4. GENERATION SECTION -->
  <rect x="780" y="330" width="170" height="120" rx="8" ry="8" fill="#f9f0ff" stroke="#722ed1" stroke-width="2"/>
  <text x="865" y="360" font-family="Arial" font-size="16" font-weight="bold" text-anchor="middle" fill="#330570">Generator (LLM)</text>
  <text x="865" y="385" font-family="Arial" font-size="14" text-anchor="middle" fill="#330570">Processes Query</text>
  <text x="865" y="405" font-family="Arial" font-size="14" text-anchor="middle" fill="#330570">with Context</text>
  <text x="865" y="425" font-family="Arial" font-size="14" text-anchor="middle" fill="#330570">Generates Answer</text>
  
  <!-- 5. OUTPUT SECTION -->
  <rect x="640" y="130" width="160" height="40" rx="20" ry="20" fill="#e6f7ff" stroke="#1890ff" stroke-width="2"/>
  <text x="720" y="155" font-family="Arial" font-size="16" text-anchor="middle" fill="#0050b3">Response</text>
  
  <!-- *** ARROWS AND CONNECTION FLOWS *** -->
  
  <!-- Query to Processing -->
  <path d="M300,170 L300,220" stroke="#595959" stroke-width="2" fill="none" marker-end="url(#arrow)"/>
  
  <!-- Processing to Retriever -->
  <path d="M300,280 L300,330" stroke="#595959" stroke-width="2" fill="none" marker-end="url(#arrow)"/>
  
  <!-- Retriever to Knowledge Base -->
  <path d="M250,410 L200,480" stroke="#595959" stroke-width="2" fill="none" marker-end="url(#arrow)" stroke-dasharray="6,3"/>
  <text x="205" y="455" font-family="Arial" font-size="12" text-anchor="start" fill="#595959">Query</text>
  
  <!-- Knowledge Base to Retriever -->
  <path d="M300,480 L300,410" stroke="#595959" stroke-width="2" fill="none" marker-end="url(#arrow)"/>
  <text x="320" y="450" font-family="Arial" font-size="12" text-anchor="start" fill="#595959">Relevant Documents</text>
  
  <!-- Retriever to Context Builder -->
  <path d="M380,370 L500,370" stroke="#595959" stroke-width="2" fill="none" marker-end="url(#arrow)"/>
  <text x="440" y="350" font-family="Arial" font-size="12" text-anchor="middle" fill="#595959">Retrieved Content</text>
  
  <!-- Original Query to Context Builder -->
  <path d="M300,220 L440,220 L500,330" stroke="#595959" stroke-width="2" fill="none" marker-end="url(#arrow)" stroke-dasharray="6,3"/>
  <text x="440" y="240" font-family="Arial" font-size="12" text-anchor="middle" fill="#595959">Original Query</text>
  
  <!-- Context Builder to Generator -->
  <path d="M660,370 L780,370" stroke="#595959" stroke-width="2" fill="none" marker-end="url(#arrow)"/>
  <text x="720" y="350" font-family="Arial" font-size="12" text-anchor="middle" fill="#595959">Query + Context</text>
  
  <!-- Generator to Response -->
  <path d="M865,330 L720,170" stroke="#595959" stroke-width="2" fill="none" marker-end="url(#arrow)"/>
  
  <!-- Response to User -->
  <path d="M640,150 L155,150" stroke="#595959" stroke-width="2" fill="none" marker-end="url(#arrow)" stroke-dasharray="6,3"/>
  
  <!-- *** ADDITIONAL VISUAL ELEMENTS *** -->
  
  <!-- Section Labels -->
  <rect x="50" y="330" width="140" height="30" rx="5" ry="5" fill="#fff7e6" stroke="#fa8c16" stroke-width="1"/>
  <text x="120" y="350" font-family="Arial" font-size="14" font-weight="bold" text-anchor="middle" fill="#873800">Retrieval Phase</text>
  
  <rect x="500" y="280" width="160" height="30" rx="5" ry="5" fill="#e6f7ff" stroke="#1890ff" stroke-width="1"/>
  <text x="580" y="300" font-family="Arial" font-size="14" font-weight="bold" text-anchor="middle" fill="#0050b3">Context Phase</text>
  
  <rect x="780" y="280" width="170" height="30" rx="5" ry="5" fill="#f9f0ff" stroke="#722ed1" stroke-width="1"/>
  <text x="865" y="300" font-family="Arial" font-size="14" font-weight="bold" text-anchor="middle" fill="#330570">Generation Phase</text>
  
  <!-- Legend -->
  <rect x="650" y="530" width="300" height="90" rx="5" ry="5" fill="#f5f5f5" stroke="#d9d9d9" stroke-width="1"/>
  <text x="670" y="550" font-family="Arial" font-size="14" font-weight="bold" fill="#262626">Legend:</text>
  
  <line x1="670" y1="570" x2="710" y2="570" stroke="#595959" stroke-width="2"/>
  <text x="720" y="574" font-family="Arial" font-size="12" fill="#595959">Data Flow</text>
  
  <line x1="670" y1="595" x2="710" y2="595" stroke="#595959" stroke-width="2" stroke-dasharray="6,3"/>
  <text x="720" y="599" font-family="Arial" font-size="12" fill="#595959">Information Flow</text>
  
  <rect x="810" y="560" width="20" height="20" rx="3" ry="3" fill="#fff2e8" stroke="#fa8c16" stroke-width="2"/>
  <text x="850" y="574" font-family="Arial" font-size="12" fill="#595959">Retrieval</text>
  
  <rect x="810" y="590" width="20" height="20" rx="3" ry="3" fill="#f9f0ff" stroke="#722ed1" stroke-width="2"/>
  <text x="850" y="604" font-family="Arial" font-size="12" fill="#595959">Generation</text>
  
  <!-- Define the arrow marker -->
  <defs>
    <marker id="arrow" markerWidth="10" markerHeight="7" refX="9" refY="3.5" orient="auto">
      <polygon points="0 0, 10 3.5, 0 7" fill="#595959"/>
    </marker>
  </defs>
</svg>