<svg xmlns="http://www.w3.org/2000/svg" viewBox="0 0 1200 800">
  <!-- Background -->
  <rect width="1200" height="800" fill="#f5f7f9" rx="8" ry="8" />
  
  <!-- Header -->
  <rect x="0" y="0" width="1200" height="80" fill="#2c3e50" rx="8 8 0 0" ry="8 8 0 0" />
  <text x="40" y="50" font-family="Arial, sans-serif" font-size="26" font-weight="bold" fill="white">RAG Performance Metrics Dashboard</text>
  
  <!-- Time selector -->
  <rect x="950" y="25" width="210" height="36" rx="18" ry="18" fill="#34495e" />
  <text x="970" y="49" font-family="Arial, sans-serif" font-size="14" fill="white">Last 30 days</text>
  <path d="M1130 43 l-5 -5 l5 -5" stroke="white" stroke-width="2" fill="none" />
  <path d="M1140 43 l5 -5 l-5 -5" stroke="white" stroke-width="2" fill="none" />
  
  <!-- Side Navigation -->
  <rect x="0" y="80" width="220" height="720" fill="#2c3e50" />
  <rect x="0" y="130" width="220" height="50" fill="#34495e" />
  
  <text x="20" y="115" font-family="Arial, sans-serif" font-size="14" fill="#b2bec3">NAVIGATION</text>
  <text x="50" y="160" font-family="Arial, sans-serif" font-size="16" fill="white">Dashboard</text>
  <text x="50" y="210" font-family="Arial, sans-serif" font-size="16" fill="#7f8c8d">Retrieval Analytics</text>
  <text x="50" y="260" font-family="Arial, sans-serif" font-size="16" fill="#7f8c8d">Generation Quality</text>
  <text x="50" y="310" font-family="Arial, sans-serif" font-size="16" fill="#7f8c8d">Query Monitoring</text>
  <text x="50" y="360" font-family="Arial, sans-serif" font-size="16" fill="#7f8c8d">Settings</text>
  
  <circle cx="30" cy="160" r="6" fill="#3498db" />
  <circle cx="30" cy="210" r="6" fill="#7f8c8d" />
  <circle cx="30" cy="260" r="6" fill="#7f8c8d" />
  <circle cx="30" cy="310" r="6" fill="#7f8c8d" />
  <circle cx="30" cy="360" r="6" fill="#7f8c8d" />
  
  <!-- Main Content Area -->
  <rect x="240" y="100" width="940" height="120" rx="8" ry="8" fill="white" stroke="#e6e6e6" stroke-width="1" />
  <text x="270" y="130" font-family="Arial, sans-serif" font-size="18" font-weight="bold" fill="#2c3e50">System Health</text>
  
  <!-- Card 1: Accuracy -->
  <rect x="270" y="150" width="190" height="50" rx="5" ry="5" fill="#f8fafc" stroke="#e6e6e6" stroke-width="1" />
  <text x="290" y="180" font-family="Arial, sans-serif" font-size="14" fill="#7f8c8d">Response Accuracy</text>
  <text x="430" y="180" font-family="Arial, sans-serif" font-size="16" font-weight="bold" fill="#2ecc71">92.7%</text>
  
  <!-- Card 2: Retrieval Precision -->
  <rect x="490" y="150" width="190" height="50" rx="5" ry="5" fill="#f8fafc" stroke="#e6e6e6" stroke-width="1" />
  <text x="510" y="180" font-family="Arial, sans-serif" font-size="14" fill="#7f8c8d">Retrieval Precision</text>
  <text x="650" y="180" font-family="Arial, sans-serif" font-size="16" font-weight="bold" fill="#3498db">87.4%</text>
  
  <!-- Card 3: Latency -->
  <rect x="710" y="150" width="190" height="50" rx="5" ry="5" fill="#f8fafc" stroke="#e6e6e6" stroke-width="1" />
  <text x="730" y="180" font-family="Arial, sans-serif" font-size="14" fill="#7f8c8d">Avg. Latency</text>
  <text x="870" y="180" font-family="Arial, sans-serif" font-size="16" font-weight="bold" fill="#e67e22">245ms</text>
  
  <!-- Card 4: Errors -->
  <rect x="930" y="150" width="190" height="50" rx="5" ry="5" fill="#f8fafc" stroke="#e6e6e6" stroke-width="1" />
  <text x="950" y="180" font-family="Arial, sans-serif" font-size="14" fill="#7f8c8d">Error Rate</text>
  <text x="1090" y="180" font-family="Arial, sans-serif" font-size="16" font-weight="bold" fill="#e74c3c">1.2%</text>
  
  <!-- Chart 1: Accuracy Over Time -->
  <rect x="240" y="240" width="450" height="260" rx="8" ry="8" fill="white" stroke="#e6e6e6" stroke-width="1" />
  <text x="270" y="270" font-family="Arial, sans-serif" font-size="18" font-weight="bold" fill="#2c3e50">Accuracy Over Time</text>
  
  <!-- Line Chart for Accuracy -->
  <line x1="270" y1="450" x2="650" y2="450" stroke="#cbd5e0" stroke-width="1" />
  <line x1="270" y1="400" x2="650" y2="400" stroke="#cbd5e0" stroke-width="1" stroke-dasharray="4,4" />
  <line x1="270" y1="350" x2="650" y2="350" stroke="#cbd5e0" stroke-width="1" stroke-dasharray="4,4" />
  <line x1="270" y1="300" x2="650" y2="300" stroke="#cbd5e0" stroke-width="1" stroke-dasharray="4,4" />
  
  <text x="260" y="455" font-family="Arial, sans-serif" font-size="10" fill="#718096" text-anchor="end">60%</text>
  <text x="260" y="405" font-family="Arial, sans-serif" font-size="10" fill="#718096" text-anchor="end">70%</text>
  <text x="260" y="355" font-family="Arial, sans-serif" font-size="10" fill="#718096" text-anchor="end">80%</text>
  <text x="260" y="305" font-family="Arial, sans-serif" font-size="10" fill="#718096" text-anchor="end">90%</text>
  
  <!-- X-axis labels -->
  <text x="270" y="470" font-family="Arial, sans-serif" font-size="10" fill="#718096">Mar 1</text>
  <text x="346" y="470" font-family="Arial, sans-serif" font-size="10" fill="#718096">Mar 8</text>
  <text x="422" y="470" font-family="Arial, sans-serif" font-size="10" fill="#718096">Mar 15</text>
  <text x="498" y="470" font-family="Arial, sans-serif" font-size="10" fill="#718096">Mar 22</text>
  <text x="574" y="470" font-family="Arial, sans-serif" font-size="10" fill="#718096">Mar 29</text>
  
  <!-- Accuracy Line -->
  <path d="M270,380 C290,375 310,350 330,340 C350,330 380,320 410,310 C440,300 470,295 500,290 C520,285 540,300 560,295 C580,290 600,285 620,280 C640,275 650,270 650,265" stroke="#3498db" stroke-width="3" fill="none" />
  <!-- Scatter Points -->
  <circle cx="270" cy="380" r="4" fill="#3498db" />
  <circle cx="330" cy="340" r="4" fill="#3498db" />
  <circle cx="410" cy="310" r="4" fill="#3498db" />
  <circle cx="500" cy="290" r="4" fill="#3498db" />
  <circle cx="560" cy="295" r="4" fill="#3498db" />
  <circle cx="620" cy="280" r="4" fill="#3498db" />
  <circle cx="650" cy="265" r="4" fill="#3498db" />
  
  <!-- Chart 2: Retrieval Metrics -->
  <rect x="710" y="240" width="450" height="260" rx="8" ry="8" fill="white" stroke="#e6e6e6" stroke-width="1" />
  <text x="740" y="270" font-family="Arial, sans-serif" font-size="18" font-weight="bold" fill="#2c3e50">Retrieval Performance</text>
  
  <!-- Bar Chart for Retrieval Metrics -->
  <line x1="740" y1="450" x2="1120" y2="450" stroke="#cbd5e0" stroke-width="1" />
  <line x1="740" y1="400" x2="1120" y2="400" stroke="#cbd5e0" stroke-width="1" stroke-dasharray="4,4" />
  <line x1="740" y1="350" x2="1120" y2="350" stroke="#cbd5e0" stroke-width="1" stroke-dasharray="4,4" />
  <line x1="740" y1="300" x2="1120" y2="300" stroke="#cbd5e0" stroke-width="1" stroke-dasharray="4,4" />
  
  <text x="730" y="455" font-family="Arial, sans-serif" font-size="10" fill="#718096" text-anchor="end">0.0</text>
  <text x="730" y="405" font-family="Arial, sans-serif" font-size="10" fill="#718096" text-anchor="end">0.25</text>
  <text x="730" y="355" font-family="Arial, sans-serif" font-size="10" fill="#718096" text-anchor="end">0.50</text>
  <text x="730" y="305" font-family="Arial, sans-serif" font-size="10" fill="#718096" text-anchor="end">0.75</text>
  
  <!-- Bars for different metrics -->
  <rect x="790" y="310" width="40" height="140" fill="#3498db" rx="3" ry="3" />
  <rect x="870" y="285" width="40" height="165" fill="#3498db" rx="3" ry="3" />
  <rect x="950" y="330" width="40" height="120" fill="#3498db" rx="3" ry="3" />
  <rect x="1030" y="270" width="40" height="180" fill="#3498db" rx="3" ry="3" />
  
  <!-- Bar chart labels -->
  <text x="810" y="470" font-family="Arial, sans-serif" font-size="12" fill="#718096" text-anchor="middle">Precision</text>
  <text x="890" y="470" font-family="Arial, sans-serif" font-size="12" fill="#718096" text-anchor="middle">Recall</text>
  <text x="970" y="470" font-family="Arial, sans-serif" font-size="12" fill="#718096" text-anchor="middle">F1</text>
  <text x="1050" y="470" font-family="Arial, sans-serif" font-size="12" fill="#718096" text-anchor="middle">NDCG</text>
  
  <!-- Statistics -->
  <text x="810" y="295" font-family="Arial, sans-serif" font-size="11" fill="#2c3e50" text-anchor="middle" font-weight="bold">0.70</text>
  <text x="890" y="270" font-family="Arial, sans-serif" font-size="11" fill="#2c3e50" text-anchor="middle" font-weight="bold">0.83</text>
  <text x="970" y="315" font-family="Arial, sans-serif" font-size="11" fill="#2c3e50" text-anchor="middle" font-weight="bold">0.60</text>
  <text x="1050" y="255" font-family="Arial, sans-serif" font-size="11" fill="#2c3e50" text-anchor="middle" font-weight="bold">0.90</text>
  
  <!-- Chart 3: Query Types -->
  <rect x="240" y="520" width="450" height="260" rx="8" ry="8" fill="white" stroke="#e6e6e6" stroke-width="1" />
  <text x="270" y="550" font-family="Arial, sans-serif" font-size="18" font-weight="bold" fill="#2c3e50">Query Distribution</text>
  
  <!-- Pie Chart for Query Types -->
  <circle cx="380" cy="650" r="90" fill="none" stroke="#e6e6e6" stroke-width="1" />
  
  <!-- Pie Segments -->
  <!-- Product: 40% -->
  <path d="M380,650 L380,560 A90,90 0 0,1 467.9,619.2 Z" fill="#3498db" />
  
  <!-- Technical: 25% -->
  <path d="M380,650 L467.9,619.2 A90,90 0 0,1 445.7,730.2 Z" fill="#2ecc71" />
  
  <!-- Account: 20% -->
  <path d="M380,650 L445.7,730.2 A90,90 0 0,1 314.3,730.2 Z" fill="#e74c3c" />
  
  <!-- Other: 15% -->
  <path d="M380,650 L314.3,730.2 A90,90 0 0,1 292.1,619.2 L380,650 Z" fill="#f39c12" />
  
  <!-- Legend -->
  <rect x="520" y="580" width="15" height="15" fill="#3498db" />
  <text x="545" y="593" font-family="Arial, sans-serif" font-size="14" fill="#2c3e50">Product Queries (40%)</text>
  
  <rect x="520" y="610" width="15" height="15" fill="#2ecc71" />
  <text x="545" y="623" font-family="Arial, sans-serif" font-size="14" fill="#2c3e50">Technical Support (25%)</text>
  
  <rect x="520" y="640" width="15" height="15" fill="#e74c3c" />
  <text x="545" y="653" font-family="Arial, sans-serif" font-size="14" fill="#2c3e50">Account Questions (20%)</text>
  
  <rect x="520" y="670" width="15" height="15" fill="#f39c12" />
  <text x="545" y="683" font-family="Arial, sans-serif" font-size="14" fill="#2c3e50">Other (15%)</text>
  
  <!-- Chart 4: Quality Metrics -->
  <rect x="710" y="520" width="450" height="260" rx="8" ry="8" fill="white" stroke="#e6e6e6" stroke-width="1" />
  <text x="740" y="550" font-family="Arial, sans-serif" font-size="18" font-weight="bold" fill="#2c3e50">Response Quality Metrics</text>
  
  <!-- Response Quality Cards - Completely Separated Layout -->
  <!-- Top Row -->
  <rect x="740" y="580" width="200" height="80" rx="5" ry="5" fill="#f8fafc" stroke="#e6e6e6" stroke-width="1" />
  <text x="840" y="610" font-family="Arial, sans-serif" font-size="14" fill="#7f8c8d" text-anchor="middle">Hallucination Rate</text>
  <text x="840" y="640" font-family="Arial, sans-serif" font-size="22" font-weight="bold" fill="#2ecc71" text-anchor="middle">4.2%</text>
  
  <rect x="960" y="580" width="170" height="80" rx="5" ry="5" fill="#f8fafc" stroke="#e6e6e6" stroke-width="1" />
  <text x="1045" y="610" font-family="Arial, sans-serif" font-size="14" fill="#7f8c8d" text-anchor="middle">Citation Rate</text>
  <text x="1045" y="640" font-family="Arial, sans-serif" font-size="22" font-weight="bold" fill="#3498db" text-anchor="middle">87.5%</text>
  
  <!-- Bottom Row -->
  <rect x="740" y="680" width="200" height="80" rx="5" ry="5" fill="#f8fafc" stroke="#e6e6e6" stroke-width="1" />
  <text x="840" y="710" font-family="Arial, sans-serif" font-size="14" fill="#7f8c8d" text-anchor="middle">Faithfulness</text>
  <text x="840" y="740" font-family="Arial, sans-serif" font-size="22" font-weight="bold" fill="#2ecc71" text-anchor="middle">96.8%</text>
  
  <!-- Quality Metrics Table -->
  <rect x="960" y="680" width="170" height="80" rx="5" ry="5" fill="#f8fafc" stroke="#e6e6e6" stroke-width="1" />
  <text x="975" y="700" font-family="Arial, sans-serif" font-size="14" fill="#7f8c8d">Quality Metrics</text>
  
  <!-- Quality metrics with better spacing -->
  <text x="975" y="720" font-family="Arial, sans-serif" font-size="12" fill="#7f8c8d">Relevance:</text>
  <text x="1110" y="720" font-family="Arial, sans-serif" font-size="12" font-weight="bold" fill="#2c3e50" text-anchor="end">91%</text>
  
  <text x="975" y="735" font-family="Arial, sans-serif" font-size="12" fill="#7f8c8d">Coherence:</text>
  <text x="1110" y="735" font-family="Arial, sans-serif" font-size="12" font-weight="bold" fill="#2c3e50" text-anchor="end">88%</text>
  
  <text x="975" y="750" font-family="Arial, sans-serif" font-size="12" fill="#7f8c8d">Context:</text>
  <text x="1110" y="750" font-family="Arial, sans-serif" font-size="12" font-weight="bold" fill="#2c3e50" text-anchor="end">85%</text>
</svg>